# xmcd
#
# Track frame offsets:
#	150
#	21685
#	44420
#	65560
#	81152
#	105110
#	125167
#	147392
#	165915
#	187917
#	205172
#	227910
#	250062
#	272205
#
# Disc length: 3894 seconds
#
# Revision: 1
# Processed by: cddbd v1.5PL3 Copyright (c) Steve Scherf et al.
# Submitted via: CDex 1.50Beta5
#
DISCID=c60f340e
DTITLE=石川さゆり - 石川さゆり特選集
DYEAR=1900
DGENRE=World
TTITLE0=昭和夢つばめ
TTITLE1=鳴門海峡
TTITLE2=紅(べに)
TTITLE3=北ものがたり
TTITLE4=風の盆恋歌
TTITLE5=酔って候
TTITLE6=天城越え
TTITLE7=宇治川哀歌
TTITLE8=珍島物語
TTITLE9=夏娘
TTITLE10=滝の白糸
TTITLE11=風祭
TTITLE12=風祭(カラオケ)
TTITLE13=酔って候(カラオケ)
EXTD=
EXTT0=
EXTT1=
EXTT2=
EXTT3=
EXTT4=
EXTT5=
EXTT6=
EXTT7=
EXTT8=
EXTT9=
EXTT10=
EXTT11=
EXTT12=
EXTT13=
PLAYORDER=
